<mxfile host="app.diagrams.net" agent="Mozilla/5.0 (Macintosh; Intel Mac OS X 10_15_7) AppleWebKit/537.36 (KHTML, like Gecko) Chrome/130.0.0.0 Safari/537.36" version="25.0.3">
  <diagram id="C5RBs43oDa-KdzZeNtuy" name="Page-1">
    <mxGraphModel grid="1" page="1" gridSize="10" guides="1" tooltips="1" connect="1" arrows="1" fold="1" pageScale="1" pageWidth="827" pageHeight="1169" math="0" shadow="0">
      <root>
        <mxCell id="WIyWlLk6GJQsqaUBKTNV-0" />
        <mxCell id="WIyWlLk6GJQsqaUBKTNV-1" parent="WIyWlLk6GJQsqaUBKTNV-0" />
        <mxCell id="EkiDnXYxokjb0I-eL3I3-0" value="&lt;p style=&quot;margin:0px;margin-top:4px;text-align:center;&quot;&gt;&lt;span style=&quot;font-weight: 700;&quot;&gt;OneRepMaxCalculator&lt;/span&gt;&lt;/p&gt;&lt;hr size=&quot;1&quot; style=&quot;border-style:solid;&quot;&gt;&lt;p style=&quot;margin:0px;margin-left:4px;&quot;&gt;- inputPanel : JPanel&lt;/p&gt;&lt;div&gt;- outputPanel : JPanel&lt;/div&gt;&lt;div&gt;- promptWeight : JLabel&lt;/div&gt;&lt;div&gt;- promptReps : JLabel&lt;/div&gt;&lt;div&gt;- promptFormulaType : JLabel&lt;/div&gt;&lt;div&gt;- inFieldWeight : JTextField&lt;/div&gt;&lt;div&gt;- inFieldReps : JTextField&lt;/div&gt;&lt;div&gt;- display : JTextArea&lt;/div&gt;&lt;div&gt;- calculateButton : JButton&lt;/div&gt;&lt;div&gt;- formulaDropdown : JComboBox&amp;lt;String&amp;gt;&lt;/div&gt;&lt;div&gt;&lt;u&gt;- FORMULA_OPTIONS : String[] =&amp;nbsp;{&quot;Epley&quot;, &quot;Brzycki&quot;, &quot;Lombardi&quot;}&lt;/u&gt;&lt;/div&gt;&lt;div&gt;&lt;u&gt;- PROGRAM_FONT : Font =&amp;nbsp;new Font(&quot;Arial&quot;, Font.PLAIN, 18)&lt;/u&gt;&lt;/div&gt;&lt;hr size=&quot;1&quot; style=&quot;border-style:solid;&quot;&gt;&lt;p style=&quot;margin:0px;margin-left:4px;&quot;&gt;+ OneRepMaxCalculator()&lt;/p&gt;&lt;div&gt;&amp;nbsp;+ actionPeformed(e : ActionEvent)&lt;/div&gt;" style="verticalAlign=top;align=left;overflow=fill;html=1;whiteSpace=wrap;strokeColor=#0F8B8D;fontColor=#143642;fillColor=#FAE5C7;" vertex="1" parent="WIyWlLk6GJQsqaUBKTNV-1">
          <mxGeometry x="200" y="200" width="360" height="250" as="geometry" />
        </mxCell>
      </root>
    </mxGraphModel>
  </diagram>
</mxfile>
